<?xml version="1.0" encoding="UTF-8" standalone="yes"?>
<svg viewBox="0 0 512 512" version="1.2" width="512" height="512" baseProfile="tiny-ps" xmlns="http://www.w3.org/2000/svg">
  <title>bimi-svg-tiny-12-ps</title>
  <defs id="defs1"/>
  <path fill="#a2adc0" d="m 191.22087,255.9747 a 86.37217,86.37217 0 1 0 0,-172.744339 86.37217,86.37217 0 1 0 0,172.744339 z m -30.83756,32.38955 c -66.466085,0 -120.31373,53.84766 -120.31373,120.31374 0,11.06643 8.974608,20.04104 20.041041,20.04104 H 322.33113 c 1.21461,0 2.36174,-0.13496 3.57635,-0.3374 -51.48591,-37.18051 -67.3433,-95.14433 -69.57008,-135.09146 -10.86401,-3.23896 -22.33531,-4.92592 -34.21148,-4.92592 z m 208.37286,-52.83547 -80.97391,32.38957 c -6.14052,2.49669 -10.18922,8.43478 -10.18922,15.04765 0,42.71373 17.47687,113.90329 90.96069,144.53842 3.98122,1.68696 8.50226,1.68696 12.48348,0 73.41634,-30.63513 90.89321,-101.82469 90.89321,-144.53842 0,-6.61287 -4.0487,-12.55096 -10.18922,-15.04765 l -80.9739,-32.38957 c -3.84627,-1.55199 -8.16488,-1.55199 -12.01113,0 z m 70.37982,58.23374 C 436.50434,327.974 420.7819,372.50964 374.76174,394.77746 V 267.98582 Z" id="path1" stroke-width="0.674783"/>
</svg>