<?xml version="1.0" standalone="no"?>
<!DOCTYPE svg PUBLIC "-//W3C//DTD SVG 20010904//EN"
 "http://www.w3.org/TR/2001/REC-SVG-20010904/DTD/svg10.dtd">
<svg version="1.0" xmlns="http://www.w3.org/2000/svg"
 width="1024.000000pt" height="1024.000000pt" viewBox="0 0 1024.000000 1024.000000"
 preserveAspectRatio="xMidYMid meet">
<metadata>
Created by potrace 1.14, written by Peter Selinger 2001-2017
</metadata>
<g transform="translate(0.000000,1024.000000) scale(0.100000,-0.100000)"
fill="#000000" stroke="none">
<path d="M3785 8198 c-97 -10 -264 -50 -360 -84 -38 -14 -121 -52 -183 -85
-614 -322 -936 -1002 -796 -1687 19 -94 62 -224 110 -328 199 -438 617 -767
1104 -871 122 -26 479 -26 599 0 206 44 431 143 598 260 48 34 135 109 193
167 296 297 450 668 452 1085 1 240 -42 441 -141 659 -119 262 -350 521 -596
668 -300 179 -641 254 -980 216z"/>
<path d="M7170 5490 c-41 -12 -1482 -590 -1512 -606 -45 -23 -98 -83 -124
-138 -21 -45 -24 -66 -24 -169 0 -307 71 -695 186 -1015 92 -257 261 -562 422
-764 95 -119 256 -282 367 -371 184 -148 421 -291 620 -372 82 -34 96 -37 161
-33 66 4 87 12 236 85 458 227 794 528 1051 944 264 429 427 991 431 1494 1
156 0 161 -26 211 -56 107 -41 99 -884 437 -694 277 -775 307 -824 306 -30 0
-66 -4 -80 -9z m1228 -1055 c9 -9 -25 -249 -53 -370 -79 -348 -242 -685 -451
-936 -156 -188 -384 -369 -601 -478 l-43 -21 0 1134 0 1134 571 -228 c314
-126 574 -232 577 -235z"/>
<path d="M3163 4519 c-378 -45 -750 -193 -1050 -418 -119 -89 -298 -264 -397
-388 -256 -319 -414 -711 -457 -1127 -17 -171 -9 -286 25 -358 35 -75 97 -137
172 -174 l59 -29 2430 -3 c1336 -1 2425 2 2420 6 -6 5 -50 39 -100 77 -119 91
-371 345 -466 470 -378 497 -603 1089 -663 1740 l-11 130 -65 17 c-35 10 -118
28 -184 40 -118 22 -140 22 -881 24 -418 1 -793 -2 -832 -7z"/>
</g>
</svg>
